<?xml version="1.0" encoding="UTF-8"?>
<svg id="Layer_2" data-name="Layer 2" xmlns="http://www.w3.org/2000/svg" xmlns:xlink="http://www.w3.org/1999/xlink" viewBox="0 0 168.98 365.28">
  <defs>
    <style>
      .cls-1 {
        fill: none;
      }

      .cls-2 {
        fill: url(#linear-gradient-2);
      }

      .cls-2, .cls-3 {
        fill-rule: evenodd;
      }

      .cls-3 {
        fill: url(#linear-gradient-3);
      }

      .cls-4 {
        fill: url(#linear-gradient);
      }

      .cls-5 {
        clip-path: url(#clippath-1);
      }

      .cls-6 {
        fill: #fff;
      }

      .cls-7 {
        clip-path: url(#clippath);
      }
    </style>
    <clipPath id="clippath">
      <rect class="cls-1" width="168.98" height="365.28" rx="18.07" ry="18.07"/>
    </clipPath>
    <linearGradient id="linear-gradient" x1="0" y1="232.56" x2="168.98" y2="232.56" gradientTransform="translate(0 415.2) scale(1 -1)" gradientUnits="userSpaceOnUse">
      <stop offset="0" stop-color="#c7adf7"/>
      <stop offset="1" stop-color="#926ad3"/>
    </linearGradient>
    <clipPath id="clippath-1">
      <rect class="cls-1" width="168.98" height="365.28" rx="18.07" ry="18.07"/>
    </clipPath>
    <linearGradient id="linear-gradient-2" x1="-15.29" y1="289.75" x2="115.83" y2="289.75" gradientTransform="translate(0 415.2) scale(1 -1)" gradientUnits="userSpaceOnUse">
      <stop offset="0" stop-color="#c08aff"/>
      <stop offset="1" stop-color="#926ad3" stop-opacity="0"/>
    </linearGradient>
    <linearGradient id="linear-gradient-3" x1="922.51" y1="581.85" x2="1053.63" y2="581.85" gradientTransform="translate(1097.58 -352.29) rotate(-180) scale(1 -1)" xlink:href="#linear-gradient-2"/>
  </defs>
  <g id="Layer_2-2" data-name="Layer 2">
    <g id="OBJECTS">
      <g>
        <rect class="cls-6" x="9.08" y="15.74" width="150.83" height="348.23" rx="16.67" ry="16.67"/>
        <g class="cls-7">
          <g>
            <rect class="cls-4" y="0" width="168.98" height="365.28" rx="18.07" ry="18.07"/>
            <g class="cls-5">
              <g>
                <path class="cls-2" d="M-15.29,263.03c28.8-12.43,15.29-92.09,25.77-110.31,13.7-23.82,28.96-19.4,41.18-37.02,19.59-28.26,9.6-84.18,22.97-101.18C87.59-1.96,115.83-8.85,115.83-12.13H-15.29v275.16Z"/>
                <path class="cls-3" d="M175.07,91.98c-28.8,12.43-15.29,92.09-25.77,110.31-13.7,23.82-28.96,19.4-41.18,37.02-19.59,28.26-9.6,84.18-22.97,101.18-12.96,16.48-41.2,23.37-41.2,26.65h131.12V91.98h0Z"/>
              </g>
            </g>
          </g>
        </g>
      </g>
    </g>
  </g>
</svg>